<svg xmlns="http://www.w3.org/2000/svg" xmlns:xlink="http://www.w3.org/1999/xlink" width="241" height="69" viewBox="0 0 241 69">
  <defs>
    <polygon id="logo-a" points=".353 33.796 20.112 33.796 20.112 .244 .353 .244"/>
  </defs>
  <g fill="none" fill-rule="evenodd" transform="matrix(1 0 0 -1 0 69)">
    <path fill="#414042" d="M10.5833569,0 C7.29518931,0 4.76658112,0.792962454 2.99753231,2.37888736 C1.22685529,3.96399981 0.343552046,6.28276501 0.343552046,9.33437052 L0.343552046,23.8408711 C0.343552046,24.4445301 0.83364288,24.9344444 1.43933654,24.9344444 L5.39344149,24.9344444 C5.99913514,24.9344444 6.49004008,24.4445301 6.49004008,23.8408711 L6.49004008,9.69510344 C6.49004008,8.00030869 6.8107972,6.73693101 7.45231145,5.90578286 C8.0930116,5.07463472 9.1366934,4.65865442 10.5833569,4.65865442 C11.9966421,4.65865442 13.0354393,5.05757303 13.6981202,5.85622271 C14.3608012,6.6548724 14.6921417,7.93449931 14.6921417,9.69510344 L14.6921417,23.8408711 C14.6921417,24.4445301 15.1830466,24.9344444 15.7887403,24.9344444 L19.7444734,24.9344444 C20.3501671,24.9344444 20.8402579,24.4445301 20.8402579,23.8408711 L20.8402579,9.35061975 C20.8402579,6.34369963 19.9781214,4.03224658 18.2522201,2.41951044 C16.5263188,0.805961838 13.9700311,0 10.5833569,0" transform="translate(.65 32.7)"/>
    <path fill="#414042" fill-rule="nonzero" d="M13.02567,16.2492306 C13.02567,18.0431457 12.7496886,19.344709 12.1952835,20.1539207 C11.6433208,20.9631324 10.779556,21.3669258 9.60724573,21.3669258 C9.09110356,21.3669258 8.57903191,21.2856796 8.06940257,21.1215624 C7.56058733,20.9574452 7.05828493,20.7112693 6.56575179,20.3830349 L6.56575179,11.1152862 C6.87266914,10.9836674 7.21052245,10.8902344 7.57686942,10.834987 C7.9440305,10.7813645 8.37957634,10.7537408 8.88432105,10.7537408 C10.2870229,10.7537408 11.3274483,11.2103442 12.0072254,12.123551 C12.6861885,13.0367577 13.02567,14.4114426 13.02567,16.2492306 M18.9108305,16.3637877 C18.9108305,13.4218645 18.1626686,11.0494768 16.6663448,9.24418729 C15.170835,7.43971023 13.3277027,6.53787793 11.1353196,6.53787793 C10.2145676,6.53787793 9.4151171,6.64268547 8.73533995,6.84986316 C8.0563769,7.05785331 7.33345221,7.37958808 6.56575179,7.81750485 L6.56575179,1.24469106 C6.56575179,0.634532455 6.07077633,0.140555845 5.46019805,0.140555845 L1.91884401,0.140555845 C1.30745163,0.140555845 0.812476167,0.634532455 0.812476167,1.24469106 L0.812476167,24.2170408 C0.812476167,24.826387 1.30745163,25.3211761 1.91884401,25.3211761 L5.68651906,25.3211761 C6.10089819,25.3211761 6.56575179,24.8466985 6.56575179,24.4770285 L6.56575179,23.4013295 C7.40997802,24.1236078 8.27048635,24.7085801 9.14646266,25.1570588 C10.0232531,25.6055376 11.036813,25.829777 12.1879566,25.829777 C14.3249806,25.829777 15.9792407,24.9815671 17.151551,23.2867724 C18.3254895,21.5919776 18.9108305,19.2837744 18.9108305,16.3637877" transform="translate(24.226 26.31)"/>
    <path fill="#414042" fill-rule="nonzero" d="M13.02567,12.9993845 L13.02567,21.3490516 C12.7399194,21.4806704 12.3906686,21.5895402 11.9762895,21.6780986 C11.5586539,21.7650319 11.1418325,21.8089049 10.7241969,21.8089049 C9.34347592,21.8089049 8.30630694,21.3628635 7.6094336,20.4715932 C6.91581667,19.5811353 6.56575179,18.3364443 6.56575179,16.7399574 C6.56575179,15.9413077 6.61785447,15.2661522 6.72287393,14.7136783 C6.82707929,14.1620169 7.02083613,13.6729151 7.30577266,13.2455603 C7.57931173,12.82958 7.93751766,12.5151574 8.38283275,12.3022925 C8.82814785,12.0894276 9.3955786,11.9829951 10.0859391,11.9829951 C10.5988249,11.9829951 11.1051978,12.0699285 11.6050579,12.2446077 C12.1024756,12.4200994 12.5779126,12.6719625 13.02567,12.9993845 Z M18.7797597,9.30837175 C18.7797597,7.60220254 18.5339002,6.15277117 18.0397389,4.9608901 C17.5455775,3.7698215 16.8739414,2.83955305 16.0175036,2.17252213 C15.1643222,1.49411675 14.1393648,1.00501491 12.9458878,0.703591685 C11.7491543,0.403793381 10.4237924,0.253487997 8.96573149,0.253487997 C7.73806209,0.253487997 6.57552104,0.333109227 5.47403782,0.492351687 C4.73401694,0.597159225 4.05912442,0.714966147 3.45017434,0.843335069 C2.95194247,0.948955067 2.6043199,1.39987122 2.6043199,1.90847213 L2.6043199,5.09738364 C2.6043199,5.4573041 2.91937829,5.80747502 3.27921242,5.64985748 C3.27921242,5.64985748 3.90281638,5.42074333 4.28951595,5.28912456 C4.67947195,5.15831826 5.07187026,5.03726149 5.46426857,4.92839164 C5.93726321,4.80814734 6.39723218,4.70983949 6.84580369,4.63265565 C7.29681752,4.55709672 7.75678649,4.51809857 8.22652471,4.51809857 C9.20182175,4.51809857 10.015112,4.62046872 10.6688378,4.82195918 C11.3193072,5.0242621 11.8102122,5.31106102 12.1391103,5.68316841 C12.4671944,6.06583779 12.6975859,6.51675394 12.8294709,7.03591685 C12.9613558,7.55589223 13.02567,8.2091113 13.02567,8.99719899 L13.02567,9.34168268 C12.3808993,8.77214714 11.6327374,8.31635622 10.7828125,7.97187254 C9.93288748,7.62738885 9.0609817,7.455147 8.16139636,7.455147 C5.77118592,7.455147 3.92723951,8.23104776 2.62874303,9.78366175 C1.33106065,11.3370882 0.682219467,13.6989139 0.682219467,16.8715761 C0.682219467,18.3145078 0.882489143,19.610384 1.28221439,20.7592046 C1.68193964,21.9072127 2.23797293,22.8854164 2.95112836,23.6954405 C3.62927731,24.4713413 4.45152272,25.0701254 5.41542231,25.491793 C6.37850778,25.912648 7.38229848,26.1230756 8.42598029,26.1230756 C9.36789905,26.1230756 10.2113112,26.0028313 10.9545885,25.7623427 C11.7003081,25.5218541 12.3808993,25.1984944 12.994734,24.794701 L13.0696316,25.0823124 C13.1559267,25.3325505 13.4017862,25.6144747 13.9171143,25.6144747 L17.6847893,25.6144747 C18.2888548,25.6144747 18.7797597,25.1253728 18.7797597,24.5217139 L18.7797597,9.30837175 Z" transform="translate(43.388 26.017)"/>
    <path fill="#414042" d="M13.02567,13.811846 C13.02567,13.6071057 12.923907,13.1106917 12.44847,13.2049373 C12.206681,13.2536849 12.0316486,13.3024326 11.614013,13.3406183 C11.1980057,13.378804 10.7380367,13.3983031 10.233292,13.3983031 C9.63248297,13.3983031 8.99829566,13.3105573 8.3356147,13.1350656 C7.67293374,12.9603863 7.02816307,12.7532086 6.40374502,12.51272 L6.40374502,1.27881445 C6.40374502,0.670280763 5.90876956,0.176304152 5.29819128,0.176304152 L1.75683724,0.176304152 C1.14625896,0.176304152 0.6512835,0.670280763 0.6512835,1.27881445 L0.6512835,17.4955466 C0.6512835,18.1040803 1.14625896,18.5980569 1.75683724,18.5980569 L5.29819128,18.5980569 C5.90876956,18.5980569 6.40374502,18.1040803 6.40374502,17.4955466 L6.40374502,15.9575569 C6.66751483,16.1980455 7.03141949,16.5010937 7.49708719,16.8683263 C7.9627549,17.233934 8.38771738,17.5264201 8.77116054,17.7457847 C9.18716788,17.9968354 9.67155998,18.2129501 10.2259651,18.3933166 C10.779556,18.573683 11.3030251,18.6638663 11.7955583,18.6638663 C11.9828023,18.6638663 12.1895848,18.6589915 12.4199764,18.6484295 C12.736663,18.6484295 13.02567,18.332382 13.02567,17.8294683 L13.02567,13.811846 Z" transform="translate(65.08 33.033)"/>
    <path fill="#414042" fill-rule="nonzero" d="M12.2115656,5.68723071 L12.2115656,9.52611144 C11.2354545,9.42699114 10.4474014,9.3433076 9.84415011,9.27181098 C9.24252697,9.20031437 8.64985899,9.06138345 8.06858846,8.85258084 C7.56547196,8.67871407 7.17470186,8.41222669 6.89383585,8.057181 C6.61459805,7.70213531 6.4745721,7.2292827 6.4745721,6.63862316 C6.4745721,5.7741641 6.70822005,5.18106718 7.17470186,4.85851995 C7.63955546,4.53597272 8.32665955,4.37510534 9.23682824,4.37510534 C9.73994475,4.37510534 10.2552728,4.48966242 10.7819983,4.71958903 C11.3079098,4.94870318 11.7849749,5.27125041 12.2115656,5.68723071 Z M12.2115656,2.83305336 C11.8175391,2.5048189 11.4642178,2.20989536 11.1516017,1.94665783 C10.8397998,1.68423275 10.4197219,1.42180768 9.89462458,1.1593826 C9.37929651,0.907519529 8.87699411,0.71659107 8.38934559,0.584972302 C7.90169707,0.454165995 7.22029171,0.388356612 6.34268719,0.388356612 C4.71040792,0.388356612 3.35411003,0.93433076 2.27542173,2.0295289 C1.19510522,3.12228966 0.656168127,4.50022442 0.656168127,6.16252071 C0.656168127,7.52989346 0.929707197,8.63402868 1.47678534,9.47736375 C2.02467758,10.3182614 2.81517293,10.9861048 3.84501496,11.4784565 C4.88625446,11.9813702 6.12939184,12.3315411 7.57605532,12.5281568 C9.02271879,12.7247725 10.5792864,12.8783277 12.245758,12.9871976 L12.245758,13.0863179 C12.245758,14.1027072 11.8696418,14.8054865 11.1190376,15.1938431 C10.3668051,15.5821997 9.24252697,15.776378 7.7405044,15.776378 C7.06072725,15.776378 6.26616138,15.6536963 5.35762089,15.406708 C4.4474522,15.1613446 3.51937321,14.8631712 3.02765417,14.6088708 C2.53593513,14.3545703 2.20133823,14.4471909 2.20133823,14.9452299 L2.20133823,18.0504578 C2.20133823,18.5623086 2.54489028,19.00835 3.04475036,19.1188447 C3.54053993,19.228527 4.15600284,19.3487713 4.89195319,19.4795777 C5.87050665,19.652632 6.87185503,19.7834383 7.86506237,19.8134993 C11.5326026,19.9248066 14.1613456,19.4023938 15.7545479,18.2446361 C17.206096,17.1900611 17.931463,15.5789498 17.931463,13.4137399 L17.931463,1.97753136 C17.931463,1.37143506 17.4397439,0.880708299 16.8324221,0.880708299 L13.1689524,0.880708299 C12.7024706,0.879895837 12.2115656,1.09032337 12.2115656,1.75166706 L12.2115656,2.83305336 Z" transform="translate(77.45 32.328)"/>
    <path fill="#414042" fill-rule="nonzero" d="M13.02567,5.68723071 L13.02567,14.7258652 C12.7399194,14.8688585 12.3686878,14.9866654 11.9087188,15.079286 C11.4487498,15.1719066 11.0539092,15.2182169 10.7241969,15.2182169 C9.34347592,15.2182169 8.30630694,14.7380522 7.6094336,13.7752852 C6.91418846,12.8133308 6.56575179,11.4678945 6.56575179,9.73978883 C6.56575179,7.92393731 6.84254728,6.61181193 7.39613825,5.80260025 C7.94972923,4.99338857 8.84442993,4.58878272 10.0843109,4.58878272 C10.5874274,4.58878272 11.0970567,4.68709057 11.6123848,4.88370626 C12.1277129,5.08113441 12.5990793,5.34843425 13.02567,5.68723071 Z M18.7789456,1.69966952 C18.7789456,1.09357322 18.2864125,0.602033994 17.6790906,0.602033994 L13.9236271,0.602033994 C13.4058567,0.602033994 13.02567,1.08057384 13.02567,1.63386014 L13.02567,2.52188059 C12.6528102,2.21558259 12.2286618,1.88653567 11.7524108,1.53717722 C11.2753456,1.1870063 10.8560818,0.924581222 10.4938054,0.749901993 C10.0338364,0.530537379 9.57956619,0.367232612 9.13018057,0.257550305 C8.68079495,0.14868046 8.14348607,0.093433076 7.51906801,0.093433076 C5.41542231,0.093433076 3.74895065,0.962766914 2.52128125,2.70224705 C1.29361185,4.44091473 0.681405362,6.7645547 0.681405362,9.67397944 C0.681405362,11.2818408 0.889001978,12.6760248 1.30582342,13.8573439 C1.72183075,15.0386629 2.29740255,16.0656143 3.0325388,16.9414478 C3.74243781,17.7904701 4.61597181,18.4518138 5.64907026,18.923854 C6.65041864,19.3804573 7.77062626,19.5600113 8.87210948,19.5275129 C9.66586125,19.503139 10.3293563,19.4040187 10.8634088,19.2293395 C11.4837563,19.0270366 12.2050528,18.712614 13.02567,18.2860717 L13.02567,25.0303148 C13.02567,25.6364111 13.517389,26.1279504 14.125525,26.1279504 L17.6790906,26.1279504 C18.2864125,26.1279504 18.7789456,25.6364111 18.7789456,25.0303148 L18.7789456,1.69966952 Z" transform="translate(96.801 32.607)"/>
    <path fill="#414042" fill-rule="nonzero" d="M13.02567,12.186923 C12.9922917,13.4007405 12.7097975,14.3253217 12.1790015,14.9590417 C11.6465772,15.5935742 10.834101,15.9104341 9.73831654,15.9104341 C8.61973713,15.9104341 7.74701724,15.5765125 7.11527224,14.910294 C6.48515545,14.2432631 6.13834699,13.3357436 6.07240454,12.186923 L13.02567,12.186923 Z M11.1182235,0.112932153 C7.63467083,0.112932153 4.96359438,0.94489276 3.10499409,2.60637659 C1.2472079,4.26867288 0.319128915,6.63699824 0.319128915,9.70972775 C0.319128915,12.7174603 1.18452187,15.1174717 2.91612187,16.9113868 C4.64690777,18.7053018 7.0696824,19.6014469 10.1811893,19.6014469 C13.0085738,19.6014469 15.1342003,18.8409829 16.5596971,17.3216798 C17.9835657,15.8015643 18.6967211,13.6249799 18.6967211,10.792739 L18.6967211,10.2232034 C18.6967211,9.14506699 17.9111104,8.72502437 17.026993,8.72502437 L6.08787252,8.72502437 C6.14323162,7.87275223 6.32477689,7.15941101 6.63088014,6.58418824 C6.93698338,6.0105904 7.34322147,5.55398702 7.84796618,5.21519056 C8.33968522,4.87558164 8.91525701,4.63265565 9.57386745,4.48478765 C10.2300356,4.33773211 10.9480756,4.26379811 11.7263594,4.26379811 C12.3955532,4.26379811 13.0517213,4.33773211 13.6997484,4.48478765 C14.3453332,4.63265565 14.9380012,4.82683395 15.4753101,5.06732256 C15.9458624,5.27450026 16.3814082,5.4995521 16.7819476,5.74004071 C17.1808587,5.98052933 17.2769231,6.04552625 17.5081287,6.19339425 C17.7393343,6.34126224 18.368637,6.33557501 18.3670088,5.42074333 C18.3653806,4.6188438 18.3670088,3.16616258 18.3670088,2.31957767 C18.3670088,1.76629137 17.924136,1.46405568 17.7149112,1.38037214 C17.5065005,1.29750106 17.4666094,1.28043937 17.0766534,1.12200937 C16.6883256,0.963579375 16.1542731,0.80189953 15.4753101,0.637782301 C14.8500779,0.474477534 14.2053072,0.346108612 13.5434404,0.252675536 C12.8799453,0.15924246 12.0715397,0.112932153 11.1182235,0.112932153 Z" transform="translate(117.477 32.604)"/>
    <path fill="#414042" d="M13.8397744,0 L12.3084441,0 C11.8777828,0 11.5293462,0.348545997 11.5293462,0.778338146 L11.5293462,10.4328185 C11.5293462,11.2753411 11.4870127,12.060179 11.4064164,12.787332 C11.3233778,13.5144851 11.1686979,14.0978325 10.9391205,14.5349368 C10.6851199,14.9939775 10.335055,15.3352114 9.88648353,15.5594508 C9.43628382,15.7836902 8.82244912,15.8966223 8.04497944,15.8966223 C7.27727901,15.8966223 6.48596956,15.6910695 5.66942287,15.2807765 C4.95626744,14.9224809 4.25695178,14.4707523 3.57391821,13.9247782 C3.3866742,13.7760977 3.27677011,13.5502334 3.27677011,13.3113697 L3.27677011,0.775900762 C3.27677011,0.346921073 2.92914754,0 2.49767222,0 L0.966341894,0 C0.535680679,0 0.187244006,0.348545997 0.187244006,0.778338146 L0.187244006,24.7475782 C0.187244006,25.1773704 0.535680679,25.5259164 0.966341894,25.5259164 L2.49767222,25.5259164 C2.92914754,25.5259164 3.27677011,25.1773704 3.27677011,24.7475782 L3.27677011,16.2898537 C4.4279137,17.3151801 5.5627752,18.0415207 6.6805405,18.469688 C7.22436223,18.6776781 7.80563275,18.7889854 8.38771738,18.8206714 C10.4180937,18.9279163 11.9868728,18.3388817 13.0907984,17.0527551 C14.110057,15.8657488 14.6188723,14.1465802 14.6188723,11.8936243 L14.6188723,0.778338146 C14.6188723,0.348545997 14.2704356,0 13.8397744,0" transform="translate(189.269 34.144)"/>
    <path fill="#414042" d="M14.6538788,1.62492306 C14.6538788,1.19513091 14.304628,0.846584915 13.8739668,0.846584915 L12.4199764,0.846584915 C11.8891803,0.846584915 11.5643527,1.14719568 11.5643527,1.62654798 L11.5643527,2.88017613 C10.6094082,2.04902798 9.70575236,1.41774537 8.85094277,0.985515836 C7.99613318,0.554098764 7.04200285,0.337983997 5.9909941,0.337983997 C5.1907295,0.337983997 4.43686885,0.468790303 3.73104035,0.731215377 C3.02439775,0.994452913 2.40730664,1.40962076 1.88139521,1.97834383 C1.35629789,2.5470669 0.946803389,3.26365797 0.656982231,4.12730457 C0.366346969,4.99176364 0.220622286,6.04146394 0.220622286,7.27721793 L0.220622286,18.3916917 C0.220622286,18.8222963 0.569873063,19.1708423 1.00053428,19.1708423 L2.5302364,19.1708423 C2.96171172,19.1708423 3.31096249,18.8222963 3.31096249,18.3916917 L3.31096249,8.73639884 C3.31096249,7.76388238 3.34759719,6.95629562 3.41842427,6.3168884 C3.48843725,5.67748117 3.65125812,5.11688272 3.90281638,4.63590549 C4.15518873,4.1646778 4.49629847,3.82100658 4.93184431,3.60245443 C5.36413373,3.38390227 5.98529537,3.27421997 6.79695743,3.27421997 C7.55163219,3.27421997 8.35759552,3.48708489 9.21321922,3.91362719 C9.95568241,4.28410965 10.6427865,4.72852611 11.278602,5.24687656 C11.4609614,5.39718195 11.5643527,5.6262961 11.5643527,5.86190994 L11.5643527,18.3916917 C11.5643527,18.8222963 11.9136034,19.1708423 12.3442646,19.1708423 L13.8739668,19.1708423 C14.304628,19.1708423 14.6538788,18.8222963 14.6538788,18.3916917 L14.6538788,1.62492306 Z" transform="translate(207.034 33.298)"/>
    <path fill="#414042" fill-rule="nonzero" d="M13.02567,9.74953836 C13.02567,11.9366848 12.6910731,13.5957312 12.0243216,14.7283026 C11.3543137,15.8600615 10.2805101,16.4263472 8.80209651,16.4263472 C7.95705617,16.4263472 7.10468888,16.2289191 6.24499466,15.8356877 C5.50415968,15.4968912 4.82194022,15.0809109 4.19915037,14.5869343 C4.00946405,14.4366289 3.90200227,14.2010151 3.90200227,13.9589016 L3.90200227,4.34666919 C3.90200227,4.04037119 4.08761807,3.75113489 4.36604177,3.62357843 C4.95789565,3.35546612 5.49357633,3.15803797 5.97389791,3.03210643 C6.57633514,2.87286397 7.23983021,2.7940552 7.96194079,2.7940552 C9.54130328,2.7940552 10.7787419,3.35140381 11.6783273,4.46691349 C12.5754703,5.58242318 13.02567,7.34383977 13.02567,9.74953836 M16.2137027,9.99571421 C16.2137027,6.99854362 15.4850793,4.5871578 14.0286466,2.76074428 C12.5713998,0.93433076 10.7453637,0.0219364613 8.55460878,0.0219364613 C7.55733092,0.0219364613 6.70496364,0.144618152 5.99832104,0.390793996 C5.29086434,0.636157378 4.59317689,0.966829221 3.90200227,1.38280952 C3.90200227,1.38280952 3.88979071,1.32106245 3.83117519,1.07326168 C3.77255968,0.824648453 3.65207223,0.529724918 3.21734049,0.529724918 L1.6005292,0.529724918 C1.16498336,0.529724918 0.812476167,0.882333222 0.812476167,1.31700014 L0.812476167,25.2691785 C0.812476167,25.7038454 1.16498336,26.0556413 1.6005292,26.0556413 L3.11394924,26.0556413 C3.54949508,26.0556413 3.90200227,25.7038454 3.90200227,25.2691785 L3.90200227,16.9349481 C4.68028605,17.6344775 5.52369819,18.2137626 6.43386688,18.6736158 C7.34403557,19.1326566 8.3730635,19.3625832 9.52420709,19.3625832 C11.5952886,19.3625832 13.228382,18.5346849 14.4234872,16.8772634 C15.6169642,15.2206543 16.2137027,12.9262629 16.2137027,9.99571421" transform="translate(224.504 33.614)"/>
    <path fill="#2E3A79" d="M20.3526094,33.3109227 L20.3526094,11.500393 C20.3526094,11.3533374 20.2736413,11.2168439 20.146641,11.1429099 L1.21545783,0.229926613 C0.849924968,0.0186866152 0.439616363,0.428167227 0.6512835,0.793774915 L19.5816525,33.517288 C19.7933197,33.8828957 20.3526094,33.7334027 20.3526094,33.3109227" transform="translate(162.48 22.407)"/>
    <g transform="translate(162.007 22.749)">
      <mask id="logo-b" fill="#fff">
        <use xlink:href="#logo-a"/>
      </mask>
      <g mask="url(#logo-b)" opacity=".25">
        <path fill="#2E3A79" d="M20.3526094,33.3109227 L1.42142624,0.586597225 C1.2097591,0.220989536 0.650469396,0.371294919 0.650469396,0.792962454 L0.650469396,22.6116169 C0.650469396,22.7586724 0.72943752,22.8951659 0.857251907,22.9690999 L19.7884351,33.8739586 C20.1539679,34.0851986 20.5642765,33.6765304 20.3526094,33.3109227" transform="translate(-.297 -.136)"/>
      </g>
    </g>
    <path fill="#2E3A79" d="M39.07701,0 L1.22359888,0 C0.800264601,0 0.650469396,0.558973533 1.01681636,0.769401069 L19.9398585,11.6750722 C20.0676729,11.7490062 20.2256091,11.7490062 20.3534235,11.6750722 L39.2837925,0.770213531 C39.6501395,0.558973533 39.5003443,0 39.07701,0" transform="translate(142.213 57.257)"/>
    <path fill="#F04E4C" d="M0,34.9358458 L0,12.3006676 C0,12.1527996 0.0789681244,12.0171185 0.206782511,11.9431845 L19.8454224,0.617470763 C20.1205896,0.459040765 20.4657699,0.657281378 20.4657699,0.974953836 L20.4657699,23.6182567 C20.4657699,23.7653122 20.3859877,23.9018058 20.2589874,23.9757398 L0.620347534,35.2933289 C0.344366151,35.4517589 0,35.2535183 0,34.9358458" transform="translate(141.894 21.607)"/>
    <path fill="#414042" d="M4.07052188,0.81246153 C3.99399607,0.888832914 3.95654726,0.980641067 3.95654726,1.08951091 L3.95654726,10.0493367 L0.941918762,10.0493367 C0.832828776,10.0493367 0.740834982,10.0875224 0.665123275,10.1638937 C0.588597463,10.2394527 0.551148662,10.3369481 0.551148662,10.4563799 L0.551148662,11.6758847 C0.551148662,11.7953165 0.58615515,11.8928119 0.656982231,11.9683708 C0.727809312,12.0439297 0.822245419,12.0829279 0.941918762,12.0829279 L9.26857831,12.0829279 C9.38825166,12.0829279 9.48594418,12.0439297 9.56165589,11.9683708 C9.6381817,11.8928119 9.67644461,11.7953165 9.67644461,11.6758847 L9.67644461,10.4563799 C9.67644461,10.3369481 9.6381817,10.2394527 9.56165589,10.1638937 C9.48594418,10.0875224 9.38825166,10.0493367 9.26857831,10.0493367 L6.2702319,10.0493367 L6.2702319,1.08951091 C6.2702319,0.980641067 6.23522541,0.888832914 6.16439833,0.81246153 C6.09357125,0.736090147 5.99913514,0.698716916 5.8794618,0.698716916 L4.34731736,0.698716916 C4.23822738,0.698716916 4.14623358,0.736090147 4.07052188,0.81246153" transform="translate(65.896 .435)"/>
    <path fill="#414042" d="M0.814104375,0.81246153 C0.737578564,0.888832914 0.700129763,0.980641067 0.700129763,1.08951091 L0.700129763,11.6758847 C0.700129763,11.7953165 0.735136251,11.8928119 0.805963332,11.9683708 C0.876790412,12.0439297 0.97122652,12.0829279 1.09089986,12.0829279 L8.27699918,12.0829279 C8.39667253,12.0829279 8.49517916,12.0439297 8.57007676,11.9683708 C8.64741668,11.8928119 8.68405137,11.7953165 8.68405137,11.6758847 L8.68405137,10.5863737 C8.68405137,10.4669419 8.64741668,10.3726964 8.57007676,10.3020122 C8.49517916,10.2313281 8.39667253,10.1963922 8.27699918,10.1963922 L2.93240396,10.1963922 L2.93240396,7.35033947 L7.91879326,7.35033947 C8.0384666,7.35033947 8.13534502,7.31215377 8.21187083,7.23578239 C8.28758254,7.16022347 8.32665955,7.06272808 8.32665955,6.94329624 L8.32665955,5.91878225 C8.32665955,5.80016287 8.28758254,5.7042924 8.21187083,5.63442071 C8.13534502,5.56373656 8.0384666,5.52880071 7.91879326,5.52880071 L2.93240396,5.52880071 L2.93240396,2.58525259 L8.40806999,2.58525259 C8.52774333,2.58525259 8.62543586,2.55031674 8.70114756,2.47963259 C8.77685927,2.40894844 8.81512218,2.31389044 8.81512218,2.19445859 L8.81512218,1.08951091 C8.81512218,0.969266606 8.77685927,0.875021068 8.70114756,0.804336915 C8.62543586,0.733652762 8.52774333,0.698716916 8.40806999,0.698716916 L1.09089986,0.698716916 C0.983438085,0.698716916 0.889816082,0.736090147 0.814104375,0.81246153" transform="translate(78.147 .435)"/>
    <path fill="#414042" d="M1.62820875,1.62492306 C0.808405645,2.3886369 0.371231595,3.47571043 0.316686602,4.88533118 C0.305289141,5.17862979 0.301218619,5.65554471 0.301218619,6.31607594 C0.301218619,6.98960655 0.305289141,7.476271 0.316686602,7.78013161 C0.371231595,9.16781591 0.810847958,10.2483897 1.63634979,11.0242905 C2.46185163,11.7993788 3.61869395,12.1877354 5.10769085,12.1877354 C6.07484685,12.1877354 6.91663077,12.0219933 7.63304262,11.6913214 C8.35026858,11.3598371 8.90630187,10.9081085 9.30439891,10.3336982 C9.70086774,9.7592879 9.90927846,9.11419345 9.93044517,8.39841484 L9.93044517,8.36591638 C9.93044517,8.27817053 9.89625279,8.20586146 9.82542571,8.1457393 C9.75459863,8.08642961 9.6756305,8.05636854 9.58933544,8.05636854 L8.00753064,8.05636854 C7.87727394,8.05636854 7.78039552,8.08642961 7.71445306,8.1457393 C7.64932471,8.20586146 7.59477972,8.31066899 7.55163219,8.4625993 C7.38881131,9.13531745 7.10631709,9.60898252 6.70496364,9.8860319 C6.30198197,10.1630813 5.77037181,10.3011997 5.10769085,10.3011997 C3.5543797,10.3011997 2.74434585,9.43267837 2.6800316,7.69969792 C2.66863414,7.40558685 2.66293541,6.95629562 2.66293541,6.3485744 C2.66293541,5.74166564 2.66863414,5.28099995 2.6800316,4.96657734 C2.74434585,3.23278443 3.5543797,2.36426305 5.10769085,2.36426305 C5.75978846,2.36426305 6.2889563,2.50319398 6.69682259,2.7794309 C7.10387478,3.05566782 7.38881131,3.53014535 7.55163219,4.20205104 C7.59477972,4.35398134 7.64932471,4.45960134 7.71445306,4.51972349 C7.78039552,4.57903319 7.87727394,4.60909426 8.00753064,4.60909426 L9.58933544,4.60909426 C9.68621386,4.60909426 9.77006661,4.5765958 9.84089369,4.51159888 C9.91172077,4.44660196 9.94102853,4.36454334 9.93044517,4.26704796 C9.90927846,3.55208181 9.70086774,2.90698736 9.30439891,2.33176459 C8.90630187,1.75735429 8.35026858,1.30481322 7.63304262,0.974141375 C6.91663077,0.643469532 6.07484685,0.478539841 5.10769085,0.478539841 C3.60811059,0.478539841 2.44882596,0.860396761 1.62820875,1.62492306" transform="translate(89.822 .493)"/>
    <path fill="#414042" d="M0.814104375,0.81246153 C0.737578564,0.888832914 0.700129763,0.980641067 0.700129763,1.08951091 L0.700129763,11.6758847 C0.700129763,11.7953165 0.735136251,11.8928119 0.805963332,11.9683708 C0.876790412,12.0439297 0.97122652,12.0829279 1.09089986,12.0829279 L2.59048012,12.0829279 C2.70933936,12.0829279 2.80784599,12.0439297 2.8843718,11.9683708 C2.9592694,11.8928119 2.99834641,11.7953165 2.99834641,11.6758847 L2.99834641,7.49658254 L7.75678649,7.49658254 L7.75678649,11.6758847 C7.75678649,11.7953165 7.79423529,11.8928119 7.869947,11.9683708 C7.94647281,12.0439297 8.03928071,12.0829279 8.14755659,12.0829279 L9.66341894,12.0829279 C9.78309228,12.0829279 9.87752839,12.0439297 9.94835547,11.9683708 C10.0191825,11.8928119 10.0533749,11.7953165 10.0533749,11.6758847 L10.0533749,1.08951091 C10.0533749,0.980641067 10.0191825,0.888832914 9.94835547,0.81246153 C9.87752839,0.736090147 9.78309228,0.698716916 9.66341894,0.698716916 L8.14755659,0.698716916 C8.03928071,0.698716916 7.94647281,0.736090147 7.869947,0.81246153 C7.79423529,0.888832914 7.75678649,0.980641067 7.75678649,1.08951091 L7.75678649,5.43130533 L2.99834641,5.43130533 L2.99834641,1.08951091 C2.99834641,0.980641067 2.9592694,0.888832914 2.8843718,0.81246153 C2.80784599,0.736090147 2.70933936,0.698716916 2.59048012,0.698716916 L1.09089986,0.698716916 C0.983438085,0.698716916 0.889816082,0.736090147 0.814104375,0.81246153" transform="translate(102.622 .435)"/>
    <path fill="#414042" fill-rule="nonzero" d="M5.69873063,8.1246153 C5.97064149,8.37404099 6.10659692,8.67221438 6.10659692,9.01913545 C6.10659692,9.36524406 5.98122485,9.65041806 5.73210891,9.87222006 C5.48136476,10.0948345 5.1720051,10.2061417 4.80240171,10.2061417 C4.44419579,10.2061417 4.13727844,10.0980844 3.88246377,9.88034467 C3.62602089,9.6642299 3.49902061,9.37661852 3.49902061,9.01913545 C3.49902061,8.76970976 3.56984769,8.51947161 3.71150185,8.27085838 C3.8523419,8.02062023 4.1128553,7.70619762 4.49385615,7.328403 C5.02546631,7.60870223 5.42763387,7.87437715 5.69873063,8.1246153 M6.57877746,2.64374982 L3.98748323,5.18025472 C3.06428887,4.6822158 2.60269169,4.1078055 2.60269169,3.45702381 C2.60269169,2.95817243 2.78993569,2.55925382 3.16523781,2.2618929 C3.53972582,1.96371952 3.98748323,1.8142266 4.50851003,1.8142266 C5.33401187,1.8142266 6.02355827,2.09046352 6.57877746,2.64374982 M2.42358873,0.513475687 C1.82522201,0.784025377 1.36199662,1.16750722 1.03065614,1.65985891 C0.69768745,2.15302306 0.533238366,2.72499597 0.533238366,3.3749652 C0.533238366,4.04768334 0.728623416,4.63021826 1.12020762,5.12419487 C1.51016362,5.61654656 2.0653828,6.06990009 2.78179465,6.48263055 C2.3258962,6.96929501 1.99699803,7.41127408 1.79591425,7.80694285 C1.59564458,8.20261161 1.49469563,8.61290468 1.49469563,9.03457222 C1.49469563,9.53261114 1.62576644,9.99490175 1.88546573,10.4173817 C2.14679324,10.8398617 2.52697998,11.1786582 3.02602596,11.4329587 C3.52670015,11.6880716 4.11855404,11.8164405 4.80240171,11.8164405 C5.45368521,11.8164405 6.02111596,11.6945713 6.50550806,11.4500203 C6.98827196,11.2062819 7.36113176,10.8731727 7.62164516,10.4490677 C7.88215856,10.0274002 8.01322937,9.56592206 8.01322937,9.06788314 C8.01322937,8.42766345 7.81133148,7.88006438 7.41079213,7.42508593 C7.00699636,6.96929501 6.42084121,6.52487855 5.64988437,6.09183655 L7.98066519,3.79907012 C8.36003783,4.45960134 8.64253205,5.17537995 8.82733374,5.94478102 C8.8379171,6.0317144 8.87373769,6.09996117 8.93398142,6.1478964 C8.99259693,6.19745655 9.07156505,6.2218304 9.17007168,6.2218304 L10.3757603,6.2218304 C10.4726387,6.2218304 10.5548632,6.18851948 10.6208057,6.12352255 C10.6851199,6.05933809 10.7176841,5.98215425 10.7176841,5.89684579 C10.7062866,5.47355333 10.5548632,4.94545334 10.2609715,4.31092088 C9.96870808,3.67638842 9.6202714,3.09385351 9.21891795,2.56250367 L10.9619154,0.805961838 C11.0392553,0.730402916 11.0767041,0.649156763 11.0767041,0.562223379 C11.0767041,0.475289995 11.0490246,0.405418304 10.9952937,0.350983381 C10.9399346,0.296548459 10.865037,0.269737228 10.7673445,0.269737228 L9.17007168,0.269737228 C8.99666745,0.269737228 8.85501329,0.323359689 8.7459233,0.432229534 L7.85040849,1.29425122 C6.9589642,0.502913687 5.84608352,0.107244922 4.50851003,0.107244922 C3.71557237,0.107244922 3.02114134,0.242925998 2.42358873,0.513475687" transform="translate(121.202 .865)"/>
    <path fill="#414042" d="M2.44231313,0.81246153 C1.77393343,1.08301122 1.23743865,1.49005445 0.828758254,2.03277875 C0.421706066,2.57387813 0.206782511,3.23115951 0.185615798,4.00056058 C0.185615798,4.09805596 0.218179973,4.18092704 0.284122427,4.25161119 C0.348436673,4.32229534 0.435545841,4.35723119 0.543821723,4.35723119 L2.12481242,4.35723119 C2.37392836,4.35723119 2.53186461,4.22155011 2.59617885,3.95100042 C2.68410213,3.38796458 2.91530777,2.96954689 3.29060989,2.6989972 C3.66428379,2.42763505 4.13972075,2.29195398 4.71610665,2.29195398 C5.38855686,2.29195398 5.90795545,2.51213105 6.27186011,2.95167274 C6.63576476,3.39040197 6.81812414,4.00624781 6.81812414,4.79677288 L6.81812414,10.0014014 L1.29361185,10.0014014 C1.18452187,10.0014014 1.09252807,10.0379622 1.01681636,10.1143336 C0.939476449,10.190705 0.902841752,10.2882004 0.902841752,10.4076322 L0.902841752,11.56214 C0.902841752,11.6815719 0.939476449,11.7758174 1.01681636,11.8465016 C1.09252807,11.9171857 1.18452187,11.952934 1.29361185,11.952934 L8.77278875,11.952934 C8.8932762,11.952934 8.9877123,11.9139359 9.05853938,11.838377 C9.12855236,11.762818 9.16518706,11.6645102 9.16518706,11.5458908 L9.16518706,4.73177595 C9.16518706,3.83156858 8.97875716,3.05729274 8.60996787,2.40651105 C8.24117859,1.75572937 7.71689537,1.26012783 7.03793233,0.918893991 C6.35815517,0.576847687 5.5627752,0.406230765 4.65016419,0.406230765 C3.84664317,0.406230765 3.11069282,0.541911841 2.44231313,0.81246153" transform="translate(139.915 .565)"/>
    <path fill="#414042" fill-rule="nonzero" d="M7.32693938,3.24984612 C7.75108776,3.68288812 7.97903698,4.34991903 8.01078705,5.25093887 C8.03195377,5.9009081 8.04335123,6.33963732 8.04335123,6.56712655 C8.04335123,6.81655224 8.03195377,7.25609393 8.01078705,7.88493915 C7.97903698,8.77377207 7.74538903,9.43755314 7.30984319,9.87709482 C6.87511145,10.3158241 6.30523839,10.5360011 5.59940989,10.5360011 C4.88218394,10.5360011 4.30742625,10.3158241 3.87269451,9.87709482 C3.43796278,9.43755314 3.20919945,8.77377207 3.18803273,7.88493915 C3.17744938,7.56970408 3.17175065,7.13097485 3.17175065,6.56712655 C3.17175065,6.01384025 3.17744938,5.57592348 3.18803273,5.25093887 C3.20919945,4.3612935 3.43552046,3.69751242 3.86373937,3.2587832 C4.29195827,2.81924151 4.87078648,2.59906444 5.59940989,2.59906444 C6.3264051,2.59906444 6.902791,2.81680413 7.32693938,3.24984612 M2.12806884,1.8353506 C1.3033811,2.58362767 0.867835264,3.69507504 0.824687732,5.16888026 C0.814104375,5.48330287 0.809219749,5.94396856 0.809219749,6.55087732 C0.809219749,7.16916054 0.814104375,7.63551346 0.824687732,7.94993607 C0.867835264,9.39205529 1.31315036,10.4978154 2.16144712,11.2672165 C3.00811567,12.0366176 4.15518873,12.4225368 5.59940989,12.4225368 C7.0338618,12.4225368 8.17605024,12.0366176 9.02923163,11.2672165 C9.88241301,10.4978154 10.3293563,9.39205529 10.3741321,7.94993607 C10.3961129,7.32109085 10.4066962,6.85473793 10.4066962,6.55087732 C10.4066962,6.25839117 10.3961129,5.79772548 10.3741321,5.16888026 C10.3293563,3.69507504 9.89218227,2.58362767 9.06260991,1.8353506 C8.23140934,1.08707353 7.07619523,0.713341224 5.59940989,0.713341224 C4.11041299,0.713341224 2.95438478,1.08707353 2.12806884,1.8353506" transform="translate(151.954 .258)"/>
    <path fill="#414042" fill-rule="nonzero" d="M5.69873063,2.43738459 C6.26290496,2.43738459 6.70252132,2.59175228 7.01920792,2.90048766 C7.33345221,3.20922304 7.49057436,3.60326689 7.49057436,4.07936934 C7.49057436,4.55628426 7.3310099,4.9503281 7.01025278,5.25906349 C6.68949565,5.56779887 6.25313571,5.72216656 5.69873063,5.72216656 L3.00974388,5.72216656 L3.00974388,2.43738459 L5.69873063,2.43738459 Z M5.53672386,7.41371146 C6.08950073,7.41371146 6.51609142,7.54939254 6.81568183,7.82075469 C7.11364403,8.09130438 7.26343924,8.45447469 7.26343924,8.90945314 C7.26343924,9.3644316 7.11608635,9.7170399 6.82300877,9.96727805 C6.52993119,10.2158913 6.10008408,10.3418228 5.53672386,10.3418228 L3.00974388,10.3418228 L3.00974388,7.41371146 L5.53672386,7.41371146 Z M0.826315941,0.810836607 C0.750604234,0.887207991 0.712341328,0.979016144 0.712341328,1.08788599 L0.712341328,11.6742597 C0.712341328,11.7936916 0.747347817,11.891187 0.817360793,11.9667459 C0.888187874,12.0423048 0.98425219,12.081303 1.10392553,12.081303 L5.82980143,12.081303 C7.10061836,12.081303 8.05067817,11.8018162 8.68079495,11.2436551 C9.31091174,10.6846816 9.62515603,9.92340513 9.62515603,8.95820083 C9.62515603,8.39516499 9.48675829,7.91500023 9.2099628,7.51933146 C8.93398142,7.1236627 8.60996787,6.83930116 8.24117859,6.6654344 C8.69789115,6.45906917 9.08296252,6.12352255 9.39802091,5.65716964 C9.7130793,5.19162918 9.87020145,4.65946688 9.87020145,4.06393257 C9.87020145,3.05566782 9.52746351,2.24239382 8.84361583,1.6241106 C8.15895405,1.00582737 7.20400962,0.697091993 5.97552612,0.697091993 L1.10392553,0.697091993 C0.994835547,0.697091993 0.902027648,0.734465223 0.826315941,0.810836607 Z" transform="translate(165.395 .437)"/>
  </g>
</svg>
